HIERARCHY
ROOT Hips
{
	OFFSET 0.000000 0.000000 0.000000 
	CHANNELS 6 Xposition Yposition Zposition Zrotation Yrotation Xrotation
	JOINT LeftUpLeg
	{
		OFFSET 1.363060 -1.794630 0.839290 
		CHANNELS 3 Zrotation Yrotation Xrotation
		JOINT LeftLeg
		{
			OFFSET 2.448110 -6.726130 0.000000 
			CHANNELS 3 Zrotation Yrotation Xrotation
			JOINT LeftFoot
			{
				OFFSET 2.562200 -7.039590 0.000000 
				CHANNELS 3 Zrotation Yrotation Xrotation
				JOINT LeftToeBase
				{
					OFFSET 0.157640 -0.433110 2.322550 
					CHANNELS 3 Zrotation Yrotation Xrotation
					End Site
					{
						OFFSET 0.000000 0.000000 0.000000 
					}
				}
			}
		}
	}
	JOINT RightUpLeg
	{
		OFFSET -1.305520 -1.794630 0.839290 
		CHANNELS 3 Zrotation Yrotation Xrotation
		JOINT RightLeg
		{
			OFFSET -2.542530 -6.985550 0.000000 
			CHANNELS 3 Zrotation Yrotation Xrotation
			JOINT RightFoot
			{
				OFFSET -2.568260 -7.056230 0.000000 
				CHANNELS 3 Zrotation Yrotation Xrotation
				JOINT RightToeBase
				{
					OFFSET -0.164730 -0.452590 2.363150 
					CHANNELS 3 Zrotation Yrotation Xrotation
					End Site
					{
						OFFSET 0.000000 0.000000 0.000000 
					}
				}
			}
		}
	}
	JOINT Spine
	{
		OFFSET 0.028270 2.035590 -0.193380 
		CHANNELS 3 Zrotation Yrotation Xrotation
		JOINT Spine1
		{
			OFFSET 0.056720 2.048850 -0.042750 
			CHANNELS 3 Zrotation Yrotation Xrotation
			JOINT Neck1
			{
				OFFSET -0.054170 1.746240 0.172020 
				CHANNELS 3 Zrotation Yrotation Xrotation
				JOINT Head
				{
					OFFSET 0.104070 1.761360 -0.123970 
					CHANNELS 3 Zrotation Yrotation Xrotation
					End Site
					{
						OFFSET 0.000000 0.000000 0.000000 
					}
				}
			}
			JOINT LeftArm
			{
				OFFSET 3.362410 1.200890 -0.311210 
				CHANNELS 3 Zrotation Yrotation Xrotation
				JOINT LeftForeArm
				{
					OFFSET 4.983000 -0.000000 -0.000000 
					CHANNELS 3 Zrotation Yrotation Xrotation
					JOINT LeftHand
					{
						OFFSET 3.483560 -0.000000 -0.000000 
						CHANNELS 3 Zrotation Yrotation Xrotation
						JOINT LeftHandIndex1
						{
							OFFSET 0.715260 -0.000000 -0.000000 
							CHANNELS 3 Zrotation Yrotation Xrotation
							End Site
							{
								OFFSET 0.000000 0.000000 0.000000 
							}
						}
					}
				}
			}
			JOINT RightArm
			{
				OFFSET -3.136600 1.374050 -0.404650 
				CHANNELS 3 Zrotation Yrotation Xrotation
				JOINT RightForeArm
				{
					OFFSET -5.241900 -0.000000 -0.000000 
					CHANNELS 3 Zrotation Yrotation Xrotation
					JOINT RightHand
					{
						OFFSET -3.444170 -0.000000 -0.000000 
						CHANNELS 3 Zrotation Yrotation Xrotation
						JOINT RightHandIndex1
						{
							OFFSET -0.622530 -0.000000 -0.000000 
							CHANNELS 3 Zrotation Yrotation Xrotation
							End Site
							{
								OFFSET 0.000000 0.000000 0.000000 
							}
						}
					}
				}
			}
		}
	}
}
MOTION
Frames: 18
Frame Time: 0.041667
5.905179 17.697907 -31.207471 1.105014 0.906247 3.345297 -19.405836 -22.650415 -0.778641 0.243290 10.350870 25.984109 -2.476458 18.450050 -19.934248 0.246200 3.192800 8.816000 24.589274 27.272365 0.694954 -2.099231 -12.154370 31.325706 -1.563894 -22.073883 -42.975587 -0.447900 -4.294000 11.905400 0.550877 -1.583271 -1.499930 -1.615249 -0.984888 8.750995 7.006558 -8.660577 15.563123 3.735200 -4.020100 14.871900 -39.533606 12.787300 1.768388 20.422947 -28.384574 -5.815149 0.244723 -0.167200 15.820261 -7.125000 0.000000 0.000000 29.703170 -9.390329 1.420751 -17.269504 24.824785 -3.776005 -0.552192 0.124795 -1.192183 7.125000 0.000000 0.000000 
5.895453 17.698921 -31.212030 1.089731 0.920693 3.351284 -19.351094 -22.717669 -0.766688 0.238456 10.342695 25.961439 -2.465682 18.414075 -19.968926 0.261100 3.287600 9.080500 24.565253 27.119992 0.587834 -2.098281 -12.155223 31.320869 -1.529506 -22.034882 -42.795123 -0.440900 -4.260500 11.810600 0.542758 -1.586437 -1.483036 -1.635319 -0.983438 8.726545 7.207670 -8.933819 15.220157 3.844200 -4.139600 14.711800 -39.550680 12.680949 1.571431 20.364239 -28.316115 -5.783995 0.242992 -0.161352 16.074032 -7.125000 0.000000 0.000000 29.795861 -9.358671 1.311894 -17.292533 24.862376 -3.790129 -0.556688 0.133523 -1.058611 7.125000 0.000000 0.000000 
5.885119 17.699630 -31.217299 1.038352 0.967472 3.359227 -19.216619 -22.652280 -0.826981 0.237604 10.333879 25.943730 -2.460275 18.334523 -19.852535 0.257900 3.267300 9.023900 24.636798 27.103191 0.547162 -2.093032 -12.153772 31.303011 -1.523351 -22.043782 -42.779473 -0.451100 -4.309100 11.948000 0.535557 -1.579267 -1.487301 -1.658420 -0.976687 8.586112 7.465895 -9.256640 14.812012 3.990700 -4.288400 14.475900 -39.474714 12.716424 1.697283 20.374848 -28.330656 -5.790136 0.241934 -0.158586 16.050896 -7.125000 0.000000 0.000000 29.884067 -9.439267 1.315978 -17.325873 24.909985 -3.806747 -0.557048 0.134580 -1.027234 7.125000 0.000000 0.000000 
5.873873 17.701656 -31.222871 1.015270 1.014542 3.371378 -19.100763 -22.574080 -0.910016 0.235912 10.325792 25.921991 -2.461629 18.276435 -19.713247 0.248900 3.210200 8.864500 24.638522 26.985551 0.452016 -2.089883 -12.152406 31.288758 -1.491454 -22.060951 -42.661563 -0.444600 -4.278400 11.861200 0.532490 -1.591121 -1.479388 -1.645674 -0.982356 8.500377 7.682437 -9.678152 14.322257 4.104100 -4.492600 14.169000 -39.440512 12.839237 1.806995 20.395510 -28.371335 -5.804076 0.237143 -0.157375 15.982372 -7.125000 0.000000 0.000000 29.969061 -9.467997 1.288737 -17.335500 24.938953 -3.816051 -0.559746 0.138767 -0.967039 7.125000 0.000000 0.000000 
5.862931 17.703074 -31.228342 0.988393 1.064615 3.381368 -18.989376 -22.516961 -0.976004 0.234350 10.318431 25.903144 -2.457921 18.206648 -19.597278 0.245200 3.186600 8.798600 24.662750 26.904324 0.384700 -2.085541 -12.149421 31.269799 -1.472784 -22.066719 -42.588992 -0.444800 -4.279100 11.863400 0.531373 -1.611091 -1.469658 -1.633458 -0.991977 8.417282 7.913252 -10.071821 13.850675 4.226000 -4.681000 13.906500 -39.434680 12.918660 1.833525 20.400789 -28.389455 -5.809574 0.234412 -0.154877 15.990287 -7.125000 0.000000 0.000000 30.041636 -9.466458 1.250238 -17.346548 24.965439 -3.824864 -0.562195 0.141215 -0.896353 7.125000 0.000000 0.000000 
5.851787 17.704594 -31.234015 0.962628 1.122279 3.392527 -18.872009 -22.442927 -1.051809 0.232341 10.309430 25.879718 -2.454316 18.127765 -19.456386 0.239800 3.151100 8.699800 24.690230 26.832195 0.320720 -2.081469 -12.147075 31.252983 -1.458130 -22.073827 -42.534741 -0.445900 -4.284100 11.877400 0.531633 -1.637527 -1.459637 -1.615533 -1.005311 8.328204 8.144482 -10.503349 13.349358 4.342900 -4.888900 13.635100 -39.436177 13.022064 1.863800 20.410321 -28.413864 -5.817603 0.231731 -0.152633 15.993769 -7.125000 0.000000 0.000000 30.112756 -9.465699 1.231112 -17.359871 24.995120 -3.834304 -0.564743 0.141871 -0.836694 7.125000 0.000000 0.000000 
5.840339 17.706215 -31.239891 0.939626 1.184848 3.406415 -18.750826 -22.356752 -1.139568 0.230647 10.301192 25.857829 -2.448115 18.032817 -19.302646 0.234100 3.114000 8.596200 24.717218 26.767471 0.258784 -2.077080 -12.144332 31.234878 -1.445115 -22.084566 -42.491073 -0.447000 -4.289800 11.893400 0.532143 -1.668002 -1.448249 -1.596401 -1.020585 8.239455 8.369824 -10.974489 12.828208 4.449000 -5.115400 13.369500 -39.444552 13.131602 1.876340 20.420934 -28.439877 -5.826362 0.229333 -0.150564 16.016522 -7.125000 0.000000 0.000000 30.185243 -9.455956 1.216350 -17.370790 25.021871 -3.842733 -0.567356 0.141139 -0.780422 7.125000 0.000000 0.000000 
5.828789 17.708039 -31.246173 0.917093 1.252547 3.424328 -18.620089 -22.249769 -1.244592 0.229184 10.293081 25.836447 -2.437936 17.913594 -19.129120 0.227900 3.072600 8.480800 24.744506 26.709513 0.195519 -2.072427 -12.141473 31.215448 -1.431531 -22.103441 -42.452321 -0.448000 -4.294300 11.906300 0.532641 -1.702100 -1.436587 -1.580104 -1.037236 8.147341 8.593041 -11.478927 12.289945 4.546800 -5.357600 13.110300 -39.454322 13.245292 1.877487 20.431182 -28.465094 -5.834795 0.227306 -0.148608 16.058099 -7.125000 0.000000 0.000000 30.255717 -9.435524 1.204175 -17.374589 25.039173 -3.847673 -0.569262 0.139042 -0.729261 7.125000 0.000000 0.000000 
5.817138 17.709964 -31.252656 0.896841 1.325348 3.447616 -18.480639 -22.120307 -1.370520 0.228139 10.285507 25.816187 -2.424322 17.771524 -18.933082 0.221000 3.026400 8.352100 24.766577 26.653506 0.125950 -2.067480 -12.138465 31.194678 -1.416277 -22.128778 -42.413171 -0.449600 -4.301900 11.927700 0.533806 -1.741540 -1.426160 -1.563265 -1.056490 8.047526 8.816940 -12.004007 11.735082 4.640500 -5.610900 12.852600 -39.468573 13.369493 1.868622 20.442273 -28.491224 -5.843656 0.225414 -0.146993 16.114447 -7.125000 0.000000 0.000000 30.317183 -9.402960 1.203128 -17.369425 25.044580 -3.848628 -0.570454 0.136524 -0.684217 7.125000 0.000000 0.000000 
5.805285 17.711990 -31.259546 0.878844 1.402940 3.475673 -18.329779 -21.958953 -1.522770 0.227681 10.278913 25.798676 -2.405254 17.596005 -18.710131 0.213900 2.977200 8.215300 24.782161 26.596182 0.048999 -2.062260 -12.134843 31.171726 -1.400102 -22.157186 -42.372730 -0.450200 -4.304800 11.935800 0.534668 -1.782474 -1.419163 -1.550979 -1.076115 7.933136 9.038597 -12.545338 11.167916 4.727700 -5.873500 12.591300 -39.479151 13.505651 1.862866 20.451982 -28.515568 -5.851848 0.223631 -0.145415 16.187763 -7.125000 0.000000 0.000000 30.372246 -9.373870 1.223812 -17.351164 25.033275 -3.843948 -0.571577 0.134163 -0.636436 7.125000 0.000000 0.000000 
5.793330 17.714219 -31.266638 0.867012 1.484556 3.509652 -18.174046 -21.772324 -1.699434 0.227840 10.273677 25.783910 -2.383646 17.399728 -18.459438 0.205400 2.918000 8.050500 24.784639 26.533973 -0.037316 -2.056762 -12.130633 31.146850 -1.383624 -22.181379 -42.327321 -0.451500 -4.311000 11.953200 0.535840 -1.829361 -1.413843 -1.538362 -1.098827 7.811031 9.272557 -13.088705 10.589511 4.820700 -6.139200 12.330000 -39.495627 13.650619 1.840069 20.456860 -28.534562 -5.857693 0.222058 -0.143667 16.278226 -7.125000 0.000000 0.000000 30.414689 -9.332064 1.254856 -17.318068 25.002875 -3.833012 -0.572411 0.132331 -0.580899 7.125000 0.000000 0.000000 
5.781375 17.716549 -31.274135 0.864347 1.570914 3.548376 -18.020616 -21.573579 -1.893365 0.228388 10.270198 25.772907 -2.355719 17.175200 -18.200725 0.199200 2.874300 7.929000 24.774212 26.473323 -0.127328 -2.050837 -12.125167 31.118851 -1.368638 -22.203408 -42.286014 -0.453000 -4.317900 11.972800 0.536816 -1.880833 -1.409786 -1.526691 -1.123864 7.684164 9.513639 -13.631294 10.008704 4.914700 -6.405100 12.074800 -39.516756 13.798074 1.798932 20.455740 -28.546386 -5.860573 0.220425 -0.141614 16.376856 -7.125000 0.000000 0.000000 30.449248 -9.281409 1.288083 -17.273052 24.956863 -3.816967 -0.573001 0.130422 -0.510153 7.125000 0.000000 0.000000 
5.769319 17.718980 -31.281834 0.876091 1.663075 3.591876 -17.873231 -21.352403 -2.110221 0.229541 10.268681 25.765924 -2.321963 16.920331 -17.922403 0.193500 2.833100 7.814400 24.751346 26.429890 -0.210894 -2.044476 -12.118229 31.087786 -1.360629 -22.221700 -42.271751 -0.456000 -4.331900 12.012200 0.537192 -1.936656 -1.408394 -1.514475 -1.151597 7.548307 9.758963 -14.163801 9.437413 5.008300 -6.666600 11.831300 -39.541588 13.948532 1.747162 20.449882 -28.551707 -5.860839 0.218583 -0.139264 16.470801 -7.125000 0.000000 0.000000 30.475623 -9.234505 1.342819 -17.226864 24.907629 -3.799866 -0.573510 0.127823 -0.436351 7.125000 0.000000 0.000000 
5.757263 17.721716 -31.289939 0.900990 1.762621 3.639163 -17.728627 -21.101035 -2.354229 0.231590 10.269408 25.764413 -2.281262 16.627190 -17.619410 0.188200 2.794300 7.706500 24.718528 26.405351 -0.286326 -2.037401 -12.109496 31.052458 -1.358810 -22.242022 -42.285858 -0.460400 -4.352700 12.071200 0.537365 -1.997536 -1.411840 -1.501368 -1.182211 7.395564 10.009234 -14.673889 8.876836 5.105500 -6.919400 11.592600 -39.567448 14.114526 1.705573 20.440866 -28.552834 -5.859461 0.216468 -0.136634 16.548190 -7.125000 0.000000 0.000000 30.494115 -9.194057 1.413628 -17.179586 24.855162 -3.782203 -0.574631 0.125654 -0.353587 7.125000 0.000000 0.000000 
5.745207 17.724755 -31.298348 0.940329 1.873446 3.690602 -17.586086 -20.808070 -2.631881 0.234553 10.272965 25.769693 -2.228785 16.275199 -17.289420 0.184400 2.765700 7.627000 24.679885 26.412035 -0.345794 -2.029582 -12.098652 31.012240 -1.365275 -22.272903 -42.346113 -0.466500 -4.380900 12.150800 0.536808 -2.063453 -1.418953 -1.489043 -1.215652 7.231768 10.257156 -15.160497 8.336848 5.200500 -7.161400 11.369600 -39.593940 14.280454 1.660638 20.428514 -28.548210 -5.855935 0.214046 -0.133711 16.608528 -7.125000 0.000000 0.000000 30.509365 -9.159719 1.489554 -17.137209 24.806351 -3.766247 -0.576072 0.123525 -0.276531 7.125000 0.000000 0.000000 
5.733151 17.727997 -31.307162 0.990437 1.997609 3.747596 -17.436713 -20.449149 -2.956310 0.239107 10.279875 25.784751 -2.160995 15.842956 -16.920893 0.180600 2.737000 7.547400 24.639633 26.451464 -0.389870 -2.020475 -12.085379 30.965393 -1.377032 -22.324533 -42.448809 -0.473800 -4.414600 12.246200 0.535390 -2.133491 -1.427913 -1.480783 -1.251162 7.067135 10.501034 -15.621745 7.820814 5.291600 -7.390500 11.164400 -39.618105 14.433842 1.604576 20.409613 -28.534349 -5.848586 0.211307 -0.130489 16.653092 -7.125000 0.000000 0.000000 30.523303 -9.116973 1.536581 -17.087813 24.746887 -3.747105 -0.577650 0.121545 -0.196289 7.125000 0.000000 0.000000 
5.721196 17.731543 -31.316382 1.050294 2.138125 3.812729 -17.275249 -20.002806 -3.339113 0.245550 10.290945 25.812000 -2.072063 15.302680 -16.512343 0.176700 2.708000 7.466800 24.601791 26.533350 -0.414504 -2.010142 -12.070144 30.912180 -1.400603 -22.390248 -42.615286 -0.484900 -4.465000 12.388700 0.533147 -2.209329 -1.435756 -1.478104 -1.289088 6.922275 10.726292 -16.059495 7.346990 5.365700 -7.604100 10.995600 -39.641816 14.561132 1.522136 20.385523 -28.511983 -5.837853 0.208554 -0.127064 16.680338 -7.125000 0.000000 0.000000 30.538513 -9.055213 1.539822 -17.031704 24.677002 -3.724875 -0.578761 0.119288 -0.126660 7.125000 0.000000 0.000000 
5.709342 17.735393 -31.325804 1.115280 2.298387 3.886179 -17.093220 -19.437738 -3.794093 0.254794 10.306678 25.855061 -1.957245 14.628888 -16.058649 0.170700 2.661700 7.338300 24.573400 26.663512 -0.418224 -1.998121 -12.052749 30.852370 -1.440509 -22.462899 -42.857624 -0.500100 -4.533600 12.582900 0.529783 -2.288347 -1.446094 -1.484000 -1.328244 6.781674 10.935334 -16.473360 6.911881 5.426000 -7.803300 10.853700 -39.656087 14.665863 1.429374 20.355173 -28.479639 -5.823070 0.205822 -0.123387 16.695336 -7.125000 0.000000 0.000000 30.558911 -8.999066 1.523985 -16.971236 24.599600 -3.700552 -0.580065 0.115735 -0.077036 7.125000 0.000000 0.000000 
